<?xml version="1.0" encoding="UTF-8" standalone="no"?><!DOCTYPE svg PUBLIC "-//W3C//DTD SVG 1.1//EN" "http://www.w3.org/Graphics/SVG/1.1/DTD/svg11.dtd"><!-- Generated by graphviz version 2.40.1 (20161225.0304)
 --><!-- Title: G Pages: 1 --><svg xmlns="http://www.w3.org/2000/svg" xmlns:xlink="http://www.w3.org/1999/xlink" width="605pt" height="152pt" viewBox="0.00 0.00 605.00 152.00">
<g id="graph0" class="graph" transform="scale(1 1) rotate(0) translate(4 148)">
<title>G</title>
<polygon fill="#ffffff" stroke="transparent" points="-4,4 -4,-148 600.9968,-148 600.9968,4 -4,4"/>
<!-- data.aws_ami.latest_ami -->
<g id="node1" class="node">
<title>data.aws_ami.latest_ami</title>
<polygon fill="none" stroke="#000000" points="373.1771,-144 219.9305,-144 219.9305,-108 373.1771,-108 373.1771,-144"/>
<text text-anchor="middle" x="296.5538" y="-121.8" font-family="sans-serif" font-size="14.00" fill="#000000">data.aws_ami.latest_ami</text>
</g>
<!-- data.aws_subnets.default_subnets -->
<g id="node2" class="node">
<title>data.aws_subnets.default_subnets</title>
<polygon fill="none" stroke="#000000" points="398.9992,-90 194.1084,-90 194.1084,-54 398.9992,-54 398.9992,-90"/>
<text text-anchor="middle" x="296.5538" y="-67.8" font-family="sans-serif" font-size="14.00" fill="#000000">data.aws_subnets.default_subnets</text>
</g>
<!-- aws_default_vpc.default -->
<g id="node3" class="node">
<title>aws_default_vpc.default</title>
<polygon fill="none" stroke="#000000" points="153.3338,-63 -.1114,-63 -.1114,-27 153.3338,-27 153.3338,-63"/>
<text text-anchor="middle" x="76.6112" y="-40.8" font-family="sans-serif" font-size="14.00" fill="#000000">aws_default_vpc.default</text>
</g>
<!-- data.aws_subnets.default_subnets&#45;&gt;aws_default_vpc.default -->
<g id="edge1" class="edge">
<title>data.aws_subnets.default_subnets-&gt;aws_default_vpc.default</title>
<path fill="none" stroke="#000000" d="M193.9877,-59.4091C183.7404,-58.1511 173.4071,-56.8826 163.3456,-55.6475"/>
<polygon fill="#000000" stroke="#000000" points="163.74,-52.1697 153.3881,-54.4251 162.8871,-59.1175 163.74,-52.1697"/>
</g>
<!-- aws_instance.http_server -->
<g id="node4" class="node">
<title>aws_instance.http_server</title>
<polygon fill="none" stroke="#000000" points="597.0526,-90 439.8294,-90 439.8294,-54 597.0526,-54 597.0526,-90"/>
<text text-anchor="middle" x="518.441" y="-67.8" font-family="sans-serif" font-size="14.00" fill="#000000">aws_instance.http_server</text>
</g>
<!-- aws_instance.http_server&#45;&gt;data.aws_ami.latest_ami -->
<g id="edge2" class="edge">
<title>aws_instance.http_server-&gt;data.aws_ami.latest_ami</title>
<path fill="none" stroke="#000000" d="M444.2473,-90.0563C423.8004,-95.0324 401.4759,-100.4654 380.5188,-105.5657"/>
<polygon fill="#000000" stroke="#000000" points="379.5663,-102.1953 370.6776,-107.9607 381.2217,-108.9967 379.5663,-102.1953"/>
</g>
<!-- aws_instance.http_server&#45;&gt;data.aws_subnets.default_subnets -->
<g id="edge3" class="edge">
<title>aws_instance.http_server-&gt;data.aws_subnets.default_subnets</title>
<path fill="none" stroke="#000000" d="M439.5871,-72C429.7777,-72 419.6021,-72 409.405,-72"/>
<polygon fill="#000000" stroke="#000000" points="409.2135,-68.5001 399.2135,-72 409.2134,-75.5001 409.2135,-68.5001"/>
</g>
<!-- aws_security_group.http_server_sg -->
<g id="node5" class="node">
<title>aws_security_group.http_server_sg</title>
<polygon fill="none" stroke="#000000" points="403.7169,-36 189.3907,-36 189.3907,0 403.7169,0 403.7169,-36"/>
<text text-anchor="middle" x="296.5538" y="-13.8" font-family="sans-serif" font-size="14.00" fill="#000000">aws_security_group.http_server_sg</text>
</g>
<!-- aws_instance.http_server&#45;&gt;aws_security_group.http_server_sg -->
<g id="edge4" class="edge">
<title>aws_instance.http_server-&gt;aws_security_group.http_server_sg</title>
<path fill="none" stroke="#000000" d="M444.2473,-53.9437C423.8004,-48.9676 401.4759,-43.5346 380.5188,-38.4343"/>
<polygon fill="#000000" stroke="#000000" points="381.2217,-35.0033 370.6776,-36.0393 379.5663,-41.8047 381.2217,-35.0033"/>
</g>
<!-- aws_security_group.http_server_sg&#45;&gt;aws_default_vpc.default -->
<g id="edge5" class="edge">
<title>aws_security_group.http_server_sg-&gt;aws_default_vpc.default</title>
<path fill="none" stroke="#000000" d="M189.1597,-31.1836C180.5545,-32.24 171.9283,-33.2989 163.4919,-34.3346"/>
<polygon fill="#000000" stroke="#000000" points="162.8087,-30.8921 153.3097,-35.5845 163.6617,-37.8399 162.8087,-30.8921"/>
</g>
</g>
</svg>